<?xml version="1.0" encoding="utf-8"?>
<svg viewBox="358.95 0 663.931 1004.342" xmlns="http://www.w3.org/2000/svg">
  <path d="M 393.737 610.429 C 393.737 617.668 398.386 630.697 399.121 637.936 C 399.855 645.175 403.525 654.102 404.014 658.928 C 404.749 663.754 411.355 676.059 413.067 679.196 C 414.78 682.333 418.45 689.813 420.408 693.674 C 422.365 697.534 427.014 705.014 429.216 707.668 C 431.662 710.322 434.109 719.008 437.534 722.869 C 441.205 726.73 450.258 733.727 450.258 733.727 C 450.258 733.727 454.172 746.033 455.641 747.722 C 456.864 749.169 463.959 753.271 469.343 756.408 C 474.97 759.545 475.949 768.231 477.172 770.162 C 478.395 772.092 501.883 790.188 505.309 792.36 C 508.735 794.531 518.521 797.668 522.926 800.564 C 527.33 803.459 529.288 809.973 531.735 812.146 C 534.18 814.076 546.904 815.523 549.84 816.006 C 552.776 816.73 559.383 822.521 561.829 823.727 C 564.275 824.934 578.222 823.004 578.222 823.004 C 578.222 823.004 586.052 829.518 589.966 829.518 C 593.637 829.518 605.137 826.381 605.137 826.381 C 605.137 826.381 611.988 830.724 613.7 831.69 C 615.413 832.654 619.083 830.724 619.083 830.724 C 619.083 830.724 622.998 877.052 623.487 878.74 C 624.221 880.429 629.359 879.223 629.359 879.223 C 629.359 879.223 632.54 881.395 632.295 882.36 C 632.051 883.325 630.828 884.532 629.849 886.945 C 628.626 889.358 631.561 890.805 631.316 893.701 C 631.071 896.596 632.295 902.146 633.274 905.041 C 634.253 907.936 637.434 908.66 637.922 910.59 C 638.657 912.521 629.604 934.478 634.987 943.164 C 640.369 951.851 646.976 947.99 658.476 947.749 C 669.976 947.508 685.634 946.06 694.443 948.232 C 703.251 950.403 708.144 948.714 713.038 948.714 C 717.931 948.714 723.314 950.162 729.921 948.714 C 736.527 947.266 735.303 947.99 735.303 946.06 C 735.548 944.129 734.325 938.097 732.611 934.961 C 730.899 931.824 729.676 932.548 724.048 932.548 C 718.421 932.548 715.729 930.617 710.101 927.24 C 704.475 923.861 686.613 911.797 685.39 910.349 C 684.166 908.902 682.943 905.765 683.677 901.663 C 684.411 897.803 683.677 891.288 683.677 885.979 C 683.677 880.671 684.411 881.878 686.857 874.639 C 689.549 867.4 691.506 850.992 693.953 840.135 C 696.4 829.277 697.867 809.492 697.867 809.492 C 697.867 809.492 707.899 805.389 714.261 801.046 C 720.623 796.703 722.091 793.084 727.229 789.947 C 732.367 786.811 733.835 786.811 733.835 781.502 C 733.835 776.193 720.623 752.065 717.931 745.309 C 715.24 738.312 718.91 739.759 718.665 732.28 C 718.421 724.8 715.485 712.252 713.038 704.532 C 710.591 696.81 711.57 698.74 711.814 694.638 C 712.059 690.537 712.059 683.539 714.016 675.818 C 715.974 668.097 716.463 661.824 717.197 656.033 C 718.176 650.483 717.442 639.625 716.219 632.146 C 715.24 624.665 716.952 614.291 714.995 598.847 C 713.038 583.405 715.24 578.579 713.283 572.548 C 711.325 566.516 710.836 562.654 710.591 556.864 C 710.346 551.073 707.165 547.936 706.187 544.317 C 705.208 540.698 699.581 531.046 699.581 531.046 C 699.581 531.046 710.346 526.22 719.399 516.81 C 728.452 507.4 730.899 493.887 730.899 493.887 C 730.899 493.887 745.09 488.097 753.653 483.271 C 762.218 478.445 773.228 468.794 778.61 463.969 C 783.993 459.143 784.727 459.866 786.44 457.936 C 788.152 456.006 788.152 454.075 789.866 452.869 C 791.823 451.663 793.291 451.18 794.759 448.285 C 796.227 445.389 798.184 443.459 803.568 435.255 C 809.195 427.051 811.397 426.086 816.045 418.847 C 820.694 411.609 820.939 409.679 822.896 402.44 C 824.853 395.202 830.237 390.376 832.683 386.515 C 835.13 382.654 836.109 383.62 838.8 381.448 C 841.492 379.277 842.715 376.381 843.449 373.245 C 844.428 370.108 845.651 369.866 851.034 369.383 C 856.417 368.66 881.374 371.073 887.49 371.555 C 893.852 372.038 895.81 376.139 906.33 379.035 C 916.852 381.931 935.446 386.757 935.446 386.757 C 935.446 386.757 932.511 388.928 933.244 392.789 C 933.979 396.407 933.244 400.992 933 405.095 C 932.756 409.196 933 408.955 935.446 414.987 C 937.648 421.02 936.425 419.33 937.404 423.673 C 938.383 428.016 941.319 430.429 941.319 430.429 C 941.319 430.429 940.095 437.668 944.5 443.701 C 948.904 449.732 964.074 453.593 974.105 449.732 C 984.137 445.872 984.137 426.569 984.137 426.569 C 984.137 426.569 995.391 400.51 997.105 391.823 C 998.817 383.137 994.658 379.035 994.658 379.035 C 994.658 379.035 994.903 377.105 994.658 374.933 C 994.413 372.762 990.743 372.038 990.743 372.038 C 990.743 372.038 994.168 364.316 993.924 361.663 C 993.679 359.009 990.743 356.354 990.743 356.354 C 990.743 356.354 991.722 350.804 987.562 349.84 C 983.403 348.874 978.999 355.63 978.999 355.63 C 978.999 355.63 976.552 352.976 973.616 353.459 C 970.435 353.7 966.765 360.215 966.765 360.215 C 966.765 360.215 934.713 345.738 926.638 341.395 C 918.564 337.051 905.352 330.295 897.277 324.746 C 889.204 319.196 879.906 312.922 871.097 308.821 C 862.289 304.719 855.683 302.789 853.236 300.858 C 851.034 298.928 848.832 297.48 844.428 296.273 C 840.024 295.067 837.822 296.273 834.396 294.826 C 830.971 293.379 829.992 290.483 825.833 289.759 C 821.918 289.035 819.471 292.172 816.535 293.137 C 813.599 294.343 815.067 292.172 813.599 290 C 812.131 287.829 811.886 287.104 809.684 283.968 C 807.482 280.831 805.035 278.66 805.035 278.66 L 806.748 261.77 C 806.748 261.77 821.429 259.839 825.098 258.633 C 828.769 257.426 829.992 255.979 830.971 252.36 C 831.704 248.981 834.396 241.742 835.62 235.469 C 836.843 229.196 839.779 226.783 839.534 223.405 C 839.29 220.027 837.088 214.718 835.375 210.858 C 833.663 206.998 834.396 203.137 834.396 199.276 C 834.396 195.416 836.598 189.143 833.906 179.25 C 831.216 169.356 824.853 163.083 824.853 163.083 C 807.727 145.228 790.844 145.952 790.844 145.952 C 790.844 145.952 787.664 133.646 776.164 130.509 C 764.908 127.373 749.984 129.062 733.101 147.4 C 716.219 165.738 722.58 184.799 722.58 184.799 C 722.58 184.799 717.197 189.143 714.995 195.175 C 712.793 201.206 714.261 204.102 714.261 204.826 C 714.261 205.549 712.304 211.582 715.485 226.783 C 718.665 241.984 725.516 251.394 725.516 251.394 C 725.516 251.394 710.836 240.295 702.761 234.505 C 694.687 228.472 685.634 220.027 683.188 217.131 C 680.741 214.236 676.092 206.998 671.198 199.759 C 666.305 192.52 652.603 177.802 646.242 169.356 C 640.125 161.153 639.636 161.153 633.518 150.537 C 627.402 139.92 604.402 114.343 604.402 114.343 C 604.402 114.343 604.158 110.724 602.935 107.105 C 601.956 103.485 593.637 95.04 592.413 92.627 C 591.19 90.215 588.499 88.284 588.499 88.284 C 588.499 88.284 585.318 78.874 581.158 75.497 C 576.754 72.359 572.105 72.601 570.882 71.394 C 569.659 70.188 566.477 57.882 565.989 53.056 C 565.499 48.472 567.457 44.853 566.722 41.957 C 565.989 39.062 560.116 38.579 557.425 35.442 C 554.734 32.306 554.489 29.893 554 26.032 C 553.51 22.413 549.106 20.241 548.861 19.035 C 548.616 17.829 548.616 15.898 546.904 14.691 C 545.192 13.485 542.5 13.244 541.032 14.691 C 539.564 16.14 536.872 14.691 534.425 15.898 C 531.978 17.104 529.533 23.137 531.735 25.791 C 533.937 28.445 531.978 31.823 530.511 34.718 C 529.043 37.614 524.884 38.097 522.926 39.062 C 520.968 40.027 519.745 43.164 516.075 51.126 C 512.405 59.089 512.405 70.429 514.117 72.601 C 515.83 74.772 515.341 75.978 513.384 77.668 C 511.426 79.357 508.735 79.598 506.288 80.804 C 503.842 81.77 503.352 83.7 501.883 84.664 C 500.416 85.63 498.703 84.424 495.277 87.077 C 492.097 89.732 492.587 95.765 492.831 97.695 C 493.32 99.625 492.342 100.349 490.384 103.002 C 488.426 105.657 489.161 111.207 489.406 112.413 C 489.65 113.62 488.671 113.62 489.161 117.963 C 489.65 122.306 496.501 121.823 496.501 121.823 L 494.544 126.649 C 494.544 126.649 477.416 130.992 472.768 133.888 C 468.119 136.783 467.384 152.949 467.141 163.325 C 466.896 173.7 466.406 176.837 463.47 186.97 C 460.534 197.105 445.609 239.812 442.428 252.118 C 439.248 264.423 430.928 297.239 433.62 305.201 C 436.311 313.405 454.662 346.461 473.747 374.933 C 492.831 403.405 509.469 422.95 508.246 424.156 C 507.022 425.363 503.842 425.121 500.905 428.257 C 498.214 431.394 476.193 512.708 473.747 518.017 C 471.3 523.325 455.641 546.247 452.215 549.625 C 449.034 553.244 449.034 550.349 445.609 551.797 C 442.428 553.244 425.056 571.341 421.142 575.925 C 417.226 580.51 397.408 584.612 395.206 587.266 C 393.004 589.92 393.737 602.95 393.737 610.429 Z M 525.372 260.805 C 525.862 253.566 527.574 252.36 528.798 246.81 C 529.776 241.261 530.755 213.03 533.447 203.861 C 536.139 194.692 538.829 188.419 536.872 183.351 C 534.915 178.525 535.649 175.871 535.649 166.702 C 535.649 157.775 537.117 134.852 539.074 127.614 C 541.032 120.376 542.5 112.654 545.925 110.965 C 549.351 109.277 562.318 105.657 562.318 105.657 C 562.318 105.657 577.489 136.783 587.031 149.33 C 596.572 161.877 609.051 175.148 613.21 180.697 C 617.37 186.488 623.977 202.655 628.626 211.341 C 633.274 220.027 641.838 238.848 651.869 252.118 C 661.901 265.389 668.996 273.592 673.89 280.831 C 678.784 288.07 679.273 293.379 679.028 299.652 C 678.784 305.925 664.592 366.729 664.592 366.729 C 664.592 366.729 656.762 366.006 648.689 363.11 C 640.614 360.215 640.859 355.389 631.806 354.424 C 622.998 353.459 625.444 354.424 617.615 349.598 C 609.786 344.772 603.179 342.359 598.286 342.359 C 593.392 342.359 590.211 345.738 588.743 345.738 C 587.275 345.738 587.031 344.29 582.137 344.531 C 577.244 344.772 576.02 347.427 576.02 343.325 C 576.02 339.223 577.977 337.775 573.818 334.879 C 569.659 331.984 564.765 331.502 562.318 330.054 C 560.116 328.365 558.893 324.504 556.202 322.091 C 553.265 319.678 551.308 320.644 548.616 316.06 C 545.925 311.475 546.659 308.821 543.968 307.614 C 541.276 306.408 529.288 302.548 528.064 298.686 C 526.841 294.826 527.086 290.241 526.351 288.311 C 525.617 286.381 525.617 288.311 525.617 281.073 C 525.617 273.834 525.128 268.043 525.372 260.805 Z" style="fill: rgb(243, 122, 69);"/>
</svg>