<?xml version="1.0" encoding="utf-8"?>
<svg viewBox="386.919 169 532.752 534.877" xmlns="http://www.w3.org/2000/svg">
  <defs>
    <linearGradient id="linear-gradient-3" x1="133" y1="331.52" x2="133" y2="204.28" gradientUnits="userSpaceOnUse" gradientTransform="matrix(1, 0, 0, 1, 398.002594, 187.182861)">
      <stop offset="0" stop-color="#781d1d"/>
      <stop offset="0.52" stop-color="#a72126"/>
      <stop offset="1" stop-color="#d9272d"/>
    </linearGradient>
    <linearGradient id="linear-gradient-4" x1="255.32" y1="422.83" x2="255.32" y2="314.9" gradientUnits="userSpaceOnUse" gradientTransform="matrix(1, 0, 0, 1, 398.002594, 187.182861)">
      <stop offset="0" stop-color="#135c9f"/>
      <stop offset="1" stop-color="#2d8dca"/>
    </linearGradient>
    <linearGradient id="linear-gradient-5" x1="373.52" y1="350.54" x2="373.52" y2="231.97" gradientUnits="userSpaceOnUse" gradientTransform="matrix(1, 0, 0, 1, 398.002594, 187.182861)">
      <stop offset="0" stop-color="#398141"/>
      <stop offset="0.21" stop-color="#5aa449"/>
      <stop offset="0.47" stop-color="#81c047"/>
      <stop offset="1" stop-color="#a5cb39"/>
    </linearGradient>
    <linearGradient id="linear-gradient-6" x1="411.33" y1="232.59" x2="411.33" y2="159.12" gradientUnits="userSpaceOnUse" gradientTransform="matrix(1, 0, 0, 1, 398.002594, 187.182861)">
      <stop offset="0" stop-color="#703d8c"/>
      <stop offset="1" stop-color="#bd97b9"/>
    </linearGradient>
  </defs>
  <path d="M 706.873 198.403 C 720.84 199.274 734.693 201.473 748.243 204.973 C 894.523 242.513 914.003 448.233 832.613 561.923 C 797.543 610.403 753.163 636.703 706.873 646.563 L 706.873 357.563 C 724.133 359.753 740.873 353.183 750.973 338.933 C 766.593 316.743 759.743 283.593 735.363 264.933 C 726.363 258.363 716.463 254.253 706.873 253.153 Z M 630.453 226.623 C 646.063 204.183 674.823 196.763 706.873 198.403 L 706.873 253.183 C 689.623 251.263 672.633 257.563 662.493 271.813 C 646.883 294.003 654.003 327.153 678.383 345.813 C 686.597 352.317 696.464 356.397 706.873 357.593 L 706.873 646.593 C 632.873 662.483 554.293 636.463 501.973 594.003 C 454.303 555.653 430.973 500.863 427.733 451.003 L 427.733 425.803 C 430.473 387.173 446.083 354.573 472.113 340.063 C 517.583 314.313 566.893 333.493 595.663 315.953 C 628.003 296.473 611.543 254.283 630.453 226.623 Z" fill-rule="evenodd" style="fill: rgb(228, 117, 37);"/>
  <path d="M 523.883 520.003 C 572.911 520.003 603.554 466.928 579.04 424.468 C 567.663 404.762 546.637 392.623 523.883 392.623 C 488.823 392.623 460.053 421.113 460.053 456.173 C 460.184 491.371 488.685 519.871 523.883 520.003 Z" fill="#f9d167" fill-rule="evenodd"/>
  <path d="M 531.003 520.003 C 566.196 519.871 594.696 491.377 594.833 456.183 C 594.833 421.113 566.073 392.633 531.003 392.633 C 481.974 392.633 451.331 445.708 475.845 488.168 C 487.223 507.874 508.248 520.013 531.003 520.013 Z" fill-rule="evenodd" fill="url(#linear-gradient-3)"/>
  <path d="M 647.163 608.493 C 688.731 608.308 714.512 563.193 693.568 527.286 C 672.623 491.379 620.662 491.609 600.038 527.702 C 595.375 535.861 592.923 545.095 592.923 554.493 C 592.913 584.103 617.303 608.493 647.163 608.493 Z" fill="#f9d167" fill-rule="evenodd"/>
  <path d="M 653.183 608.493 C 683.043 608.493 707.423 584.113 707.423 554.493 C 707.499 512.847 662.464 486.735 626.359 507.491 C 590.254 528.248 590.158 580.305 626.186 601.195 C 634.39 605.952 643.7 608.468 653.183 608.493 Z" fill-rule="evenodd" fill="url(#linear-gradient-4)"/>
  <path d="M 765.223 536.183 C 801.18 536.29 823.77 497.433 805.884 466.239 C 787.999 435.046 743.052 434.911 724.98 465.997 C 720.812 473.168 718.628 481.319 718.653 489.613 C 718.757 515.29 739.546 536.079 765.223 536.183 Z" fill="#f9d167" fill-rule="evenodd"/>
  <path d="M 771.523 536.183 C 807.48 536.083 829.845 497.095 811.779 466.005 C 793.714 434.916 748.767 435.041 730.875 466.231 C 726.794 473.346 724.658 481.41 724.683 489.613 C 724.793 515.392 745.743 536.222 771.523 536.183 Z" fill-rule="evenodd" fill="url(#linear-gradient-5)"/>
  <path d="M 803.853 419.183 C 832.22 419.29 850.065 388.65 835.975 364.029 C 821.885 339.409 786.426 339.275 772.149 363.787 C 768.846 369.459 767.118 375.91 767.143 382.473 C 767.241 402.706 783.619 419.084 803.853 419.183 Z" fill="#f9d167" fill-rule="evenodd"/>
  <path d="M 809.323 419.183 C 837.69 419.29 855.535 388.65 841.445 364.029 C 827.355 339.409 791.896 339.275 777.619 363.787 C 774.316 369.459 772.588 375.91 772.613 382.473 C 772.711 402.706 789.089 419.084 809.323 419.183 Z" fill-rule="evenodd" fill="url(#linear-gradient-6)"/>
</svg>